<?xml version="1.0" encoding="UTF-8"?>
<svg width="150px" height="150px" viewBox="0 0 150 150" version="1.1" xmlns="http://www.w3.org/2000/svg" xmlns:xlink="http://www.w3.org/1999/xlink">
    <!-- Generator: Sketch 52.6 (67491) - http://www.bohemiancoding.com/sketch -->
    <title>D20_Logo</title>
    <desc>Created with Sketch.</desc>
    <defs>
        <linearGradient x1="50%" y1="0%" x2="50%" y2="95.943992%" id="linearGradient-1">
            <stop stop-color="#3F5A89" offset="0%"></stop>
            <stop stop-color="#019D9C" offset="100%"></stop>
        </linearGradient>
    </defs>
    <g id="D20_Logo" stroke="none" stroke-width="1" fill="none" fill-rule="evenodd">
        <rect fill="#000000" x="0" y="0" width="150" height="150"></rect>
        <g id="Group-Copy-5" transform="translate(24.000000, 26.000000)" stroke="url(#linearGradient-1)">
            <path d="M5.68434189e-14,52.8684211 L15.3,56.7368421 L21.675,91.5526316 L5.68434189e-14,52.8684211 Z M5.32907052e-15,49 L19.125,5.15789474 L15.3,50.2894737 L5.32907052e-15,49 Z M23.6013587,2.57894737 L61.2,24.5 L20.4,50.2894737 L23.6013587,2.57894737 Z M26.775,-3.55271368e-15 L73.95,1.28947368 L63.75,20.6315789 L26.775,-3.55271368e-15 Z M77.775,3.86842105 L100.725,42.5526316 L70.125,24.5 L77.775,3.86842105 Z M68.85,28.3684211 L100.725,46.4210526 L70.125,81.2368421 L68.85,28.3684211 Z M102,49 L76.5,96.7105263 L71.4,86.3947368 L102,49 Z M73.95,98 L30.6,96.7105263 L66.3,88.9736842 L73.95,98 Z M62.475,85.1052632 L25.3094828,94.1315789 L20.4,58.0263158 L62.475,85.1052632 Z M65.025,81.2368421 L22.95,54.1578947 L63.75,28.3684211 L65.025,81.2368421 Z" id="Combined-Shape"></path>
        </g>
        <g id="Group-Copy-2" transform="translate(24.000000, 26.000000)" stroke="url(#linearGradient-1)">
            <path d="M5.68434189e-14,52.8684211 L15.3,56.7368421 L21.675,91.5526316 L5.68434189e-14,52.8684211 Z M5.32907052e-15,49 L19.125,5.15789474 L15.3,50.2894737 L5.32907052e-15,49 Z M23.6013587,2.57894737 L61.2,24.5 L20.4,50.2894737 L23.6013587,2.57894737 Z M26.775,-3.55271368e-15 L73.95,1.28947368 L63.75,20.6315789 L26.775,-3.55271368e-15 Z M77.775,3.86842105 L100.725,42.5526316 L70.125,24.5 L77.775,3.86842105 Z M68.85,28.3684211 L100.725,46.4210526 L70.125,81.2368421 L68.85,28.3684211 Z M102,49 L76.5,96.7105263 L71.4,86.3947368 L102,49 Z M73.95,98 L30.6,96.7105263 L66.3,88.9736842 L73.95,98 Z M62.475,85.1052632 L25.3094828,94.1315789 L20.4,58.0263158 L62.475,85.1052632 Z M65.025,81.2368421 L22.95,54.1578947 L63.75,28.3684211 L65.025,81.2368421 Z" id="Combined-Shape"></path>
        </g>
    </g>
</svg>